# xmcd
#
# Track frame offsets: 
#        150
#        10962
#        23342
#        32695
#        48582
#        63725
#        69400
#        80225
#        88807
#        98803
#        112520
#        118484
#
# Disc length: 1705 seconds
#
# Revision: 0
# Processed by: cddbd v1.5.2PL0 Copyright (c) Steve Scherf et al.
# Submitted via: ExactAudioCopy v1.3
#
DISCID=9a06a70c
DTITLE=Bob Frank - Bob Frank
DYEAR=1972
DGENRE=Country
TTITLE0=Wino
TTITLE1=She Pawned Her Diamond For Some Gold
TTITLE2=Waitsburg
TTITLE3=Cold Canadian Pines
TTITLE4=Judas Iscariot
TTITLE5=Before the Trash Truck Comes
TTITLE6=Way Down In Mississippi
TTITLE7=Jones and Me
TTITLE8=Layin' Around
TTITLE9=Return To Skid Row Joe
TTITLE10=The Deer Hunter
TTITLE11=Memphis Jail
EXTD=Release date: 1972
EXTT0=
EXTT1=
EXTT2=
EXTT3=
EXTT4=
EXTT5=
EXTT6=
EXTT7=
EXTT8=
EXTT9=
EXTT10=
EXTT11=
PLAYORDER=
